<svg width="24" height="24" viewBox="0 0 29 29" fill="none" xmlns="http://www.w3.org/2000/svg">
<path d="M19.3962 2.1593L20.5634 2.47468C21.9909 2.86096 23.2921 3.61474 24.3374 4.66084C25.3827 5.70694 26.1354 7.00881 26.5205 8.43659L26.8347 9.60264L24.5026 10.2322L24.1872 9.06613C23.912 8.04627 23.3742 7.11638 22.6275 6.36922C21.8808 5.62206 20.9512 5.08375 19.9315 4.80797L18.7654 4.49139L19.3962 2.1593ZM1.20833 2.41668H11.5758L13.3726 10.5004L11.1251 12.7479C12.446 14.805 14.1947 16.5533 16.2521 17.8737L18.4996 15.6274L26.5833 17.4242V27.7917H25.375C20.7234 27.7989 16.1695 26.4575 12.2646 23.9298C9.38544 22.0665 6.93352 19.6146 5.07017 16.7354C2.54258 12.8305 1.20116 8.27658 1.20833 3.62501V2.41668ZM3.65763 4.83334C3.86091 8.6033 5.04778 12.2543 7.10017 15.4232C8.77778 18.015 10.9851 20.2222 13.5768 21.8998C16.7456 23.9523 20.3967 25.1392 24.1667 25.3424V19.3623L19.2693 18.2748L16.6424 20.903L15.8413 20.4474C12.7995 18.7187 10.2813 16.2005 8.55258 13.1588L8.09704 12.3576L10.7252 9.73072L9.63767 4.83334H3.65763ZM18.2917 6.24105L19.459 6.55643C20.1727 6.74957 20.8234 7.12646 21.346 7.64951C21.8686 8.17256 22.245 8.82349 22.4375 9.53739L22.7517 10.7034L20.4196 11.333L20.1043 10.1669C20.0216 9.86095 19.8602 9.582 19.6361 9.35789C19.412 9.13378 19.133 8.97236 18.827 8.88972L17.661 8.57434L18.2917 6.24105Z" fill="#004A93"/>
</svg>
