<svg width="24" height="25" viewBox="0 0 24 25" fill="none" xmlns="http://www.w3.org/2000/svg">
<path d="M8.25 10.5C8.05109 10.5 7.86032 10.579 7.71967 10.7197C7.57902 10.8603 7.5 11.0511 7.5 11.25C7.5 11.4489 7.57902 11.6397 7.71967 11.7803C7.86032 11.921 8.05109 12 8.25 12C8.44891 12 8.63968 11.921 8.78033 11.7803C8.92098 11.6397 9 11.4489 9 11.25C9 11.0511 8.92098 10.8603 8.78033 10.7197C8.63968 10.579 8.44891 10.5 8.25 10.5ZM7.5 16.75C7.5 16.5511 7.57902 16.3603 7.71967 16.2197C7.86032 16.079 8.05109 16 8.25 16C8.44891 16 8.63968 16.079 8.78033 16.2197C8.92098 16.3603 9 16.5511 9 16.75C9 16.9489 8.92098 17.1397 8.78033 17.2803C8.63968 17.421 8.44891 17.5 8.25 17.5C8.05109 17.5 7.86032 17.421 7.71967 17.2803C7.57902 17.1397 7.5 16.9489 7.5 16.75ZM3 6.75C3 5.88805 3.34241 5.0614 3.9519 4.4519C4.5614 3.84241 5.38805 3.5 6.25 3.5H17.75C18.612 3.5 19.4386 3.84241 20.0481 4.4519C20.6576 5.0614 21 5.88805 21 6.75V18.25C21 19.112 20.6576 19.9386 20.0481 20.5481C19.4386 21.1576 18.612 21.5 17.75 21.5H6.25C5.38805 21.5 4.5614 21.1576 3.9519 20.5481C3.34241 19.9386 3 19.112 3 18.25V6.75ZM6 11.25C6 11.5455 6.0582 11.8381 6.17127 12.111C6.28434 12.384 6.45008 12.6321 6.65901 12.841C6.86794 13.0499 7.11598 13.2157 7.38896 13.3287C7.66194 13.4418 7.95453 13.5 8.25 13.5C8.54547 13.5 8.83806 13.4418 9.11104 13.3287C9.38402 13.2157 9.63206 13.0499 9.84099 12.841C10.0499 12.6321 10.2157 12.384 10.3287 12.111C10.4418 11.8381 10.5 11.5455 10.5 11.25C10.5 10.6533 10.2629 10.081 9.84099 9.65901C9.41903 9.23705 8.84674 9 8.25 9C7.65326 9 7.08097 9.23705 6.65901 9.65901C6.23705 10.081 6 10.6533 6 11.25ZM8.25 14.5C7.65326 14.5 7.08097 14.7371 6.65901 15.159C6.23705 15.581 6 16.1533 6 16.75C6 17.3467 6.23705 17.919 6.65901 18.341C7.08097 18.7629 7.65326 19 8.25 19C8.84674 19 9.41903 18.7629 9.84099 18.341C10.2629 17.919 10.5 17.3467 10.5 16.75C10.5 16.1533 10.2629 15.581 9.84099 15.159C9.41903 14.7371 8.84674 14.5 8.25 14.5ZM12 11.25C12 11.664 12.336 12 12.75 12H17.25C17.4489 12 17.6397 11.921 17.7803 11.7803C17.921 11.6397 18 11.4489 18 11.25C18 11.0511 17.921 10.8603 17.7803 10.7197C17.6397 10.579 17.4489 10.5 17.25 10.5H12.75C12.5511 10.5 12.3603 10.579 12.2197 10.7197C12.079 10.8603 12 11.0511 12 11.25ZM12.75 16C12.5511 16 12.3603 16.079 12.2197 16.2197C12.079 16.3603 12 16.5511 12 16.75C12 16.9489 12.079 17.1397 12.2197 17.2803C12.3603 17.421 12.5511 17.5 12.75 17.5H17.25C17.4489 17.5 17.6397 17.421 17.7803 17.2803C17.921 17.1397 18 16.9489 18 16.75C18 16.5511 17.921 16.3603 17.7803 16.2197C17.6397 16.079 17.4489 16 17.25 16H12.75ZM6 6.75C6 7.164 6.336 7.5 6.75 7.5H17.25C17.4489 7.5 17.6397 7.42098 17.7803 7.28033C17.921 7.13968 18 6.94891 18 6.75C18 6.55109 17.921 6.36032 17.7803 6.21967C17.6397 6.07902 17.4489 6 17.25 6H6.75C6.55109 6 6.36032 6.07902 6.21967 6.21967C6.07902 6.36032 6 6.55109 6 6.75Z" fill="#00529B"/>
</svg>
