<svg width="23" height="23" viewBox="0 0 23 23" fill="none" xmlns="http://www.w3.org/2000/svg">
<path d="M20.833 15.7299C20.6728 16.9473 20.0749 18.0648 19.151 18.8736C18.2271 19.6824 17.0404 20.1273 15.8125 20.1251C8.67891 20.1251 2.875 14.3212 2.875 7.18756C2.8728 5.95966 3.31765 4.77294 4.12646 3.84905C4.93528 2.92517 6.05275 2.32729 7.27016 2.16709C7.57801 2.1295 7.88976 2.19249 8.15888 2.34664C8.428 2.50079 8.64004 2.73784 8.76336 3.02241L10.6609 7.25854V7.26932C10.7553 7.48715 10.7943 7.72497 10.7744 7.96154C10.7544 8.19812 10.6763 8.42608 10.5468 8.62506C10.5306 8.64932 10.5135 8.67178 10.4955 8.69424L8.625 10.9116C9.29793 12.279 10.7282 13.6967 12.1136 14.3715L14.3004 12.5108C14.3219 12.4928 14.3444 12.476 14.3678 12.4605C14.5666 12.3279 14.7954 12.2469 15.0333 12.225C15.2713 12.203 15.511 12.2407 15.7307 12.3347L15.7424 12.3401L19.975 14.2367C20.26 14.3596 20.4977 14.5714 20.6523 14.8406C20.807 15.1098 20.8704 15.4217 20.833 15.7299Z" fill="#004A93"/>
</svg>
